<mxfile host="app.diagrams.net" modified="2023-11-28T10:09:55.430Z" agent="Mozilla/5.0 (Macintosh; Intel Mac OS X 10.15; rv:109.0) Gecko/20100101 Firefox/119.0" version="22.1.4" etag="U329t6wI0IKm9OtSUywQ" type="github">
  <diagram name="Page-1" id="XWlESbjiq1D2hn3e3qvk">
    <mxGraphModel>
      <root>
        <mxCell id="0" />
        <mxCell id="1" parent="0" />
      </root>
    </mxGraphModel>
  </diagram>
</mxfile>
